<?xml version="1.0" standalone="no"?>
<!DOCTYPE svg PUBLIC "-//W3C//DTD SVG 20010904//EN"
 "http://www.w3.org/TR/2001/REC-SVG-20010904/DTD/svg10.dtd">
<svg version="1.0" xmlns="http://www.w3.org/2000/svg"
 width="71.000000pt" height="71.000000pt" viewBox="0 0 71.000000 71.000000"
 preserveAspectRatio="xMidYMid meet">

<g transform="translate(0.000000,71.000000) scale(0.100000,-0.100000)"
fill="#000000" stroke="none">
<path d="M69 687 c-63 -42 -69 -67 -69 -294 0 -112 3 -203 8 -202 4 0 56 76
117 170 60 93 113 169 117 169 5 0 8 -81 8 -180 l0 -180 30 0 c25 0 30 -4 30
-25 0 -21 -5 -25 -30 -25 l-30 0 0 -61 0 -60 199 3 c264 4 255 -2 259 163 2
95 0 116 -10 107 -7 -5 -26 -12 -43 -14 -27 -3 -31 -8 -36 -43 -5 -29 -7 -18
-8 43 l-1 82 38 0 c21 0 44 -6 50 -12 10 -10 12 25 10 166 l-3 179 -35 18
c-31 17 -60 19 -301 19 -260 0 -267 -1 -300 -23z m469 -24 c5 -17 -26 -29 -40
-15 -6 6 -7 15 -3 22 9 14 37 9 43 -7z m-8 -78 c0 -33 -4 -45 -15 -45 -11 0
-15 12 -15 45 0 33 4 45 15 45 11 0 15 -12 15 -45z m-79 -140 c-3 -46 -9 -58
-21 -50 -5 3 -9 26 -8 51 2 34 6 44 18 42 11 -3 14 -13 11 -43z m155 3 c-1
-60 -20 -64 -24 -5 -2 35 0 47 11 47 10 0 13 -12 13 -42z m-79 -25 c-3 -67
-27 -71 -27 -4 0 38 4 51 14 51 11 0 14 -12 13 -47z m-119 -85 c19 -19 14 -29
-8 -16 -15 10 -22 10 -32 0 -9 -9 -4 -20 25 -50 39 -40 45 -60 25 -80 -23 -23
-78 -8 -78 22 0 6 5 5 12 -2 17 -17 48 -15 55 4 3 10 -7 27 -31 48 -40 38 -43
47 -20 70 19 19 36 20 52 4z m74 -65 l3 -68 30 0 30 0 3 68 c4 85 22 88 22 3
0 -71 -14 -96 -55 -96 -41 0 -55 25 -55 96 0 85 18 82 22 -3z"/>
<path d="M128 277 l-68 -102 66 -3 c37 -2 68 -1 71 1 2 3 2 50 1 105 l-3 100
-67 -101z"/>
<path d="M624 315 c-8 -20 2 -45 19 -45 7 0 22 6 32 14 16 12 17 16 6 30 -17
20 -50 21 -57 1z"/>
<path d="M10 101 c0 -51 78 -101 158 -101 l32 0 0 60 0 60 -95 0 c-87 0 -95
-2 -95 -19z"/>
</g>
</svg>
